<svg viewBox="121 29 178 208" fill="none" xmlns="http://www.w3.org/2000/svg">
<path d="M229.42 36C229.42 34.3431 230.763 33 232.42 33H247.53C248.082 33 248.53 33.4477 248.53 34V124H229.42V36Z" fill="#C8B280"/>
<path d="M201.21 55.11C201.21 53.4531 202.553 52.11 204.21 52.11H219.32C219.872 52.11 220.32 52.5577 220.32 53.11V124H201.21V55.11Z" fill="#343B4D"/>
<path d="M173 74.22C173 72.5631 174.343 71.22 176 71.22H191.11C191.662 71.22 192.11 71.6677 192.11 72.22V124H173V74.22Z" fill="#343B4D"/>
<path d="M155.545 140.242C157.401 140.242 159.335 140.319 161.345 140.474C163.395 140.629 165.463 140.938 167.551 141.402C167.551 141.402 167.609 141.808 167.725 142.62C167.88 143.393 168.035 144.321 168.189 145.404C168.344 146.448 168.479 147.415 168.595 148.304C168.75 149.155 168.827 149.657 168.827 149.812C168.866 149.967 168.75 150.121 168.479 150.276C168.209 150.431 167.919 150.508 167.609 150.508C167.339 150.508 167.107 150.45 166.913 150.334C166.836 149.909 166.643 149.251 166.333 148.362C166.063 147.473 165.541 146.545 164.767 145.578C164.033 144.611 162.95 143.799 161.519 143.142C160.089 142.446 158.194 142.098 155.835 142.098C153.747 142.098 151.853 142.581 150.151 143.548C148.45 144.476 146.981 145.752 145.743 147.376C144.545 148.961 143.617 150.74 142.959 152.712C142.341 154.645 142.031 156.598 142.031 158.57C142.031 160.774 142.321 162.939 142.901 165.066C143.52 167.193 144.429 169.126 145.627 170.866C146.865 172.567 148.392 173.94 150.209 174.984C152.065 175.989 154.231 176.492 156.705 176.492C158.445 176.492 159.915 176.221 161.113 175.68C162.351 175.139 163.375 174.501 164.187 173.766C165.309 172.761 166.121 171.639 166.623 170.402C167.126 169.165 167.474 168.082 167.667 167.154C168.325 167.077 168.924 167.231 169.465 167.618C169.465 167.889 169.388 168.43 169.233 169.242C169.117 170.054 168.963 170.943 168.769 171.91C168.576 172.838 168.363 173.669 168.131 174.404C167.899 175.139 167.687 175.603 167.493 175.796C165.947 176.647 164.187 177.285 162.215 177.71C160.243 178.135 157.943 178.348 155.313 178.348C152.529 178.348 149.977 177.865 147.657 176.898C145.337 175.893 143.327 174.539 141.625 172.838C139.963 171.098 138.667 169.126 137.739 166.922C136.85 164.679 136.405 162.301 136.405 159.788C136.405 157.12 136.869 154.626 137.797 152.306C138.764 149.947 140.098 147.859 141.799 146.042C143.501 144.225 145.511 142.813 147.831 141.808C150.19 140.764 152.761 140.242 155.545 140.242ZM182.875 140.764C183.996 140.764 185.079 140.745 186.123 140.706C187.206 140.629 188.327 140.571 189.487 140.532C189.642 140.687 189.7 140.957 189.661 141.344C189.661 141.731 189.603 142.001 189.487 142.156C189.255 142.156 188.83 142.195 188.211 142.272C187.592 142.311 187.012 142.388 186.471 142.504C185.93 142.62 185.62 142.794 185.543 143.026C185.427 143.413 185.35 143.915 185.311 144.534C185.311 145.153 185.311 145.829 185.311 146.564C185.311 146.68 185.311 146.796 185.311 146.912C185.311 147.028 185.311 147.144 185.311 147.26V171.446C185.311 171.562 185.311 171.678 185.311 171.794C185.311 171.91 185.311 172.026 185.311 172.142C185.311 172.877 185.311 173.553 185.311 174.172C185.35 174.752 185.427 175.235 185.543 175.622C185.62 175.815 185.93 175.989 186.471 176.144C187.012 176.299 187.592 176.415 188.211 176.492C188.83 176.531 189.255 176.55 189.487 176.55C189.603 176.705 189.661 176.975 189.661 177.362C189.7 177.749 189.642 178.019 189.487 178.174C188.327 178.097 187.206 178.039 186.123 178C185.079 177.923 183.996 177.884 182.875 177.884C181.792 177.884 180.69 177.923 179.569 178C178.448 178.039 177.307 178.097 176.147 178.174C175.992 178.019 175.915 177.749 175.915 177.362C175.954 176.975 176.031 176.705 176.147 176.55C176.379 176.55 176.804 176.531 177.423 176.492C178.042 176.415 178.622 176.299 179.163 176.144C179.743 175.989 180.052 175.815 180.091 175.622C180.246 175.158 180.323 174.559 180.323 173.824C180.362 173.089 180.381 172.297 180.381 171.446V147.26C180.381 146.409 180.362 145.617 180.323 144.882C180.323 144.109 180.246 143.49 180.091 143.026C180.052 142.794 179.743 142.62 179.163 142.504C178.622 142.388 178.042 142.311 177.423 142.272C176.804 142.195 176.379 142.156 176.147 142.156C176.031 142.001 175.954 141.731 175.915 141.344C175.915 140.957 175.992 140.687 176.147 140.532C177.307 140.571 178.448 140.629 179.569 140.706C180.69 140.745 181.792 140.764 182.875 140.764ZM199.893 140.764C201.13 140.764 202.329 140.745 203.489 140.706C204.649 140.629 205.789 140.571 206.911 140.532C206.988 140.687 207.007 140.996 206.969 141.46C206.969 141.885 206.911 142.117 206.795 142.156C206.64 142.156 206.273 142.214 205.693 142.33C205.151 142.407 204.629 142.581 204.127 142.852C203.624 143.084 203.373 143.471 203.373 144.012C203.373 144.631 203.721 145.907 204.417 147.84C204.726 148.691 205.132 149.831 205.635 151.262C206.176 152.654 206.756 154.201 207.375 155.902C207.993 157.603 208.612 159.305 209.231 161.006C209.888 162.707 210.468 164.273 210.971 165.704C211.512 167.135 211.937 168.314 212.247 169.242C212.595 170.131 212.788 170.615 212.827 170.692C212.904 170.537 213.155 169.957 213.581 168.952C214.006 167.908 214.528 166.593 215.147 165.008C215.804 163.423 216.519 161.683 217.293 159.788C218.066 157.855 218.839 155.902 219.613 153.93C220.425 151.958 221.179 150.102 221.875 148.362C222.145 147.705 222.377 147.009 222.571 146.274C222.764 145.539 222.861 144.921 222.861 144.418C222.861 143.799 222.59 143.335 222.049 143.026C221.546 142.717 220.985 142.504 220.367 142.388C219.787 142.272 219.381 142.214 219.149 142.214C218.994 142.137 218.917 141.885 218.917 141.46C218.917 140.996 218.994 140.687 219.149 140.532C220.193 140.571 221.179 140.629 222.107 140.706C223.035 140.745 224.021 140.764 225.065 140.764C225.954 140.764 226.65 140.764 227.153 140.764C227.694 140.725 228.216 140.687 228.719 140.648C229.221 140.609 229.84 140.571 230.575 140.532C230.652 140.687 230.671 140.996 230.633 141.46C230.594 141.924 230.536 142.156 230.459 142.156C230.227 142.156 229.685 142.253 228.835 142.446C228.023 142.639 227.365 143.026 226.863 143.606C226.515 143.993 226.051 144.785 225.471 145.984C224.929 147.144 224.446 148.265 224.021 149.348C222.977 151.939 222.01 154.317 221.121 156.482C220.27 158.647 219.419 160.735 218.569 162.746C217.757 164.757 216.906 166.845 216.017 169.01C215.127 171.175 214.122 173.573 213.001 176.202C212.691 176.937 212.343 177.439 211.957 177.71C211.609 177.981 211.241 178.116 210.855 178.116C210.739 178.116 210.642 178 210.565 177.768C210.487 177.497 210.41 177.304 210.333 177.188C209.057 173.824 207.858 170.692 206.737 167.792C205.654 164.853 204.533 161.876 203.373 158.86C202.251 155.844 200.975 152.519 199.545 148.884C199.119 147.763 198.694 146.757 198.269 145.868C197.882 144.979 197.437 144.167 196.935 143.432C196.741 143.123 196.393 142.871 195.891 142.678C195.388 142.485 194.885 142.349 194.383 142.272C193.919 142.195 193.571 142.156 193.339 142.156C193.3 142.156 193.281 141.905 193.281 141.402C193.281 140.861 193.3 140.571 193.339 140.532C194.653 140.571 195.736 140.629 196.587 140.706C197.476 140.745 198.578 140.764 199.893 140.764ZM240.843 140.764C241.965 140.764 243.047 140.745 244.091 140.706C245.174 140.629 246.295 140.571 247.455 140.532C247.61 140.687 247.668 140.957 247.629 141.344C247.629 141.731 247.571 142.001 247.455 142.156C247.223 142.156 246.798 142.195 246.179 142.272C245.561 142.311 244.981 142.388 244.439 142.504C243.898 142.62 243.589 142.794 243.511 143.026C243.395 143.413 243.318 143.915 243.279 144.534C243.279 145.153 243.279 145.829 243.279 146.564C243.279 146.68 243.279 146.796 243.279 146.912C243.279 147.028 243.279 147.144 243.279 147.26V171.446C243.279 171.562 243.279 171.678 243.279 171.794C243.279 171.91 243.279 172.026 243.279 172.142C243.279 172.877 243.279 173.553 243.279 174.172C243.318 174.752 243.395 175.235 243.511 175.622C243.589 175.815 243.898 175.989 244.439 176.144C244.981 176.299 245.561 176.415 246.179 176.492C246.798 176.531 247.223 176.55 247.455 176.55C247.571 176.705 247.629 176.975 247.629 177.362C247.668 177.749 247.61 178.019 247.455 178.174C246.295 178.097 245.174 178.039 244.091 178C243.047 177.923 241.965 177.884 240.843 177.884C239.761 177.884 238.659 177.923 237.537 178C236.416 178.039 235.275 178.097 234.115 178.174C233.961 178.019 233.883 177.749 233.883 177.362C233.922 176.975 233.999 176.705 234.115 176.55C234.347 176.55 234.773 176.531 235.391 176.492C236.01 176.415 236.59 176.299 237.131 176.144C237.711 175.989 238.021 175.815 238.059 175.622C238.214 175.158 238.291 174.559 238.291 173.824C238.33 173.089 238.349 172.297 238.349 171.446V147.26C238.349 146.409 238.33 145.617 238.291 144.882C238.291 144.109 238.214 143.49 238.059 143.026C238.021 142.794 237.711 142.62 237.131 142.504C236.59 142.388 236.01 142.311 235.391 142.272C234.773 142.195 234.347 142.156 234.115 142.156C233.999 142.001 233.922 141.731 233.883 141.344C233.883 140.957 233.961 140.687 234.115 140.532C235.275 140.571 236.416 140.629 237.537 140.706C238.659 140.745 239.761 140.764 240.843 140.764ZM273.011 140.242C274.867 140.242 276.8 140.319 278.811 140.474C280.86 140.629 282.929 140.938 285.017 141.402C285.017 141.402 285.075 141.808 285.191 142.62C285.346 143.393 285.5 144.321 285.655 145.404C285.81 146.448 285.945 147.415 286.061 148.304C286.216 149.155 286.293 149.657 286.293 149.812C286.332 149.967 286.216 150.121 285.945 150.276C285.674 150.431 285.384 150.508 285.075 150.508C284.804 150.508 284.572 150.45 284.379 150.334C284.302 149.909 284.108 149.251 283.799 148.362C283.528 147.473 283.006 146.545 282.233 145.578C281.498 144.611 280.416 143.799 278.985 143.142C277.554 142.446 275.66 142.098 273.301 142.098C271.213 142.098 269.318 142.581 267.617 143.548C265.916 144.476 264.446 145.752 263.209 147.376C262.01 148.961 261.082 150.74 260.425 152.712C259.806 154.645 259.497 156.598 259.497 158.57C259.497 160.774 259.787 162.939 260.367 165.066C260.986 167.193 261.894 169.126 263.093 170.866C264.33 172.567 265.858 173.94 267.675 174.984C269.531 175.989 271.696 176.492 274.171 176.492C275.911 176.492 277.38 176.221 278.579 175.68C279.816 175.139 280.841 174.501 281.653 173.766C282.774 172.761 283.586 171.639 284.089 170.402C284.592 169.165 284.94 168.082 285.133 167.154C285.79 167.077 286.39 167.231 286.931 167.618C286.931 167.889 286.854 168.43 286.699 169.242C286.583 170.054 286.428 170.943 286.235 171.91C286.042 172.838 285.829 173.669 285.597 174.404C285.365 175.139 285.152 175.603 284.959 175.796C283.412 176.647 281.653 177.285 279.681 177.71C277.709 178.135 275.408 178.348 272.779 178.348C269.995 178.348 267.443 177.865 265.123 176.898C262.803 175.893 260.792 174.539 259.091 172.838C257.428 171.098 256.133 169.126 255.205 166.922C254.316 164.679 253.871 162.301 253.871 159.788C253.871 157.12 254.335 154.626 255.263 152.306C256.23 149.947 257.564 147.859 259.265 146.042C260.966 144.225 262.977 142.813 265.297 141.808C267.656 140.764 270.227 140.242 273.011 140.242ZM131.483 224.112C131.483 224.112 131.657 223.648 132.005 222.72C132.392 221.753 132.895 220.458 133.513 218.834C134.132 217.21 134.828 215.412 135.601 213.44C136.413 211.429 137.225 209.38 138.037 207.292C138.849 205.165 139.623 203.135 140.357 201.202C141.131 199.269 141.807 197.567 142.387 196.098C142.542 195.789 142.871 195.441 143.373 195.054C143.915 194.667 144.321 194.474 144.591 194.474C144.669 194.474 144.707 194.493 144.707 194.532C144.746 194.532 144.804 194.551 144.881 194.59L156.423 224.866C157.274 227.109 157.757 228.346 157.873 228.578C158.067 229.003 158.434 229.371 158.975 229.68C159.555 229.989 160.116 230.221 160.657 230.376C161.237 230.492 161.605 230.55 161.759 230.55C161.914 230.743 161.972 231.053 161.933 231.478C161.895 231.865 161.856 232.097 161.817 232.174C160.696 232.097 159.691 232.039 158.801 232C157.912 231.923 156.849 231.884 155.611 231.884C154.297 231.884 153.195 231.923 152.305 232C151.455 232.039 150.372 232.097 149.057 232.174C148.903 232.019 148.825 231.749 148.825 231.362C148.864 230.975 148.961 230.705 149.115 230.55C149.463 230.55 150.005 230.492 150.739 230.376C151.474 230.221 151.977 230.028 152.247 229.796C152.402 229.641 152.479 229.371 152.479 228.984C152.479 228.636 152.344 228.056 152.073 227.244C151.841 226.393 151.532 225.446 151.145 224.402C150.759 223.358 150.372 222.353 149.985 221.386C149.599 220.381 149.27 219.569 148.999 218.95C148.767 218.293 148.651 217.964 148.651 217.964C148.651 217.964 148.613 217.925 148.535 217.848C148.458 217.771 148.381 217.732 148.303 217.732C147.723 217.693 147.008 217.674 146.157 217.674C145.307 217.674 144.514 217.674 143.779 217.674C143.586 217.674 143.393 217.674 143.199 217.674C143.006 217.674 142.832 217.674 142.677 217.674C141.517 217.674 140.531 217.693 139.719 217.732C138.907 217.732 137.863 217.771 136.587 217.848C136.549 217.848 136.491 217.887 136.413 217.964C136.336 218.003 136.297 218.022 136.297 218.022C136.297 218.022 136.143 218.409 135.833 219.182C135.563 219.955 135.215 220.883 134.789 221.966C134.403 223.01 134.055 223.996 133.745 224.924C133.397 225.891 133.165 226.703 133.049 227.36C132.972 228.017 132.933 228.539 132.933 228.926C132.933 229.351 133.223 229.699 133.803 229.97C134.422 230.202 135.041 230.357 135.659 230.434C136.317 230.511 136.723 230.55 136.877 230.55C136.955 230.627 137.013 230.879 137.051 231.304C137.09 231.691 137.071 231.981 136.993 232.174C136.259 232.135 135.621 232.097 135.079 232.058C134.577 232.019 134.055 231.981 133.513 231.942C133.011 231.903 132.334 231.884 131.483 231.884C130.633 231.884 129.917 231.903 129.337 231.942C128.757 231.981 128.177 232.019 127.597 232.058C127.017 232.097 126.283 232.135 125.393 232.174C125.316 232.097 125.277 231.865 125.277 231.478C125.277 231.053 125.316 230.743 125.393 230.55C125.741 230.55 126.321 230.473 127.133 230.318C127.984 230.125 128.545 229.835 128.815 229.448C129.395 228.713 129.879 227.901 130.265 227.012C130.691 226.084 131.097 225.117 131.483 224.112ZM142.561 201.318L137.399 215.122C137.399 215.122 137.399 215.161 137.399 215.238C137.438 215.315 137.477 215.354 137.515 215.354C138.25 215.393 139.12 215.431 140.125 215.47C141.169 215.47 142.001 215.47 142.619 215.47C143.509 215.47 144.301 215.451 144.997 215.412C145.732 215.373 146.525 215.335 147.375 215.296C147.453 215.296 147.491 215.257 147.491 215.18C147.53 215.064 147.549 215.006 147.549 215.006L142.561 201.318ZM189.166 194.532C189.63 194.532 190.229 194.435 190.964 194.242C191.698 194.049 192.24 193.875 192.588 193.72C192.897 193.565 193.11 193.488 193.226 193.488C193.342 193.488 193.477 193.527 193.632 193.604C193.825 195.344 194.038 197.026 194.27 198.65C194.54 200.274 194.83 201.84 195.14 203.348C195.062 203.425 194.927 203.522 194.734 203.638C194.54 203.754 194.308 203.793 194.038 203.754C193.612 203.754 193.342 203.657 193.226 203.464C192.839 201.492 192.201 199.849 191.312 198.534C190.422 197.219 189.262 196.562 187.832 196.562H180.64V225.446C180.64 226.297 180.64 227.089 180.64 227.824C180.678 228.559 180.775 229.158 180.93 229.622C181.007 229.815 181.316 229.989 181.858 230.144C182.399 230.299 182.96 230.415 183.54 230.492C184.158 230.531 184.584 230.55 184.816 230.55C184.932 230.705 184.99 230.975 184.99 231.362C185.028 231.749 184.97 232.019 184.816 232.174C183.656 232.097 182.534 232.039 181.452 232C180.408 231.923 179.325 231.884 178.204 231.884C177.121 231.884 176.019 231.923 174.898 232C173.776 232.039 172.636 232.097 171.476 232.174C171.321 232.019 171.244 231.749 171.244 231.362C171.282 230.975 171.36 230.705 171.476 230.55C171.708 230.55 172.133 230.531 172.752 230.492C173.37 230.415 173.95 230.299 174.492 230.144C175.072 229.989 175.381 229.815 175.42 229.622C175.574 229.158 175.652 228.559 175.652 227.824C175.69 227.089 175.71 226.297 175.71 225.446V196.562H168.402C166.971 196.562 165.811 197.219 164.922 198.534C164.032 199.849 163.375 201.492 162.95 203.464C162.834 203.657 162.563 203.754 162.138 203.754C161.867 203.793 161.635 203.754 161.442 203.638C161.287 203.522 161.171 203.425 161.094 203.348C161.403 201.84 161.674 200.274 161.906 198.65C162.138 197.026 162.35 195.344 162.544 193.604C162.737 193.527 162.969 193.527 163.24 193.604C163.51 193.643 163.723 193.701 163.878 193.778C164.226 193.933 164.709 194.107 165.328 194.3C165.985 194.455 166.546 194.532 167.01 194.532H189.166ZM209.311 225.446C209.311 225.523 209.311 225.639 209.311 225.794C209.311 226.142 209.311 226.606 209.311 227.186C209.311 227.727 209.33 228.23 209.369 228.694C209.407 229.158 209.485 229.429 209.601 229.506C209.987 229.777 210.451 229.951 210.993 230.028C211.573 230.067 212.462 230.086 213.661 230.086H216.851C217.933 230.086 219.113 229.97 220.389 229.738C221.703 229.467 222.747 229.061 223.521 228.52C224.217 228.017 224.855 227.321 225.435 226.432C226.053 225.543 226.595 224.344 227.059 222.836C227.136 222.604 227.407 222.488 227.871 222.488C228.567 222.488 229.031 222.604 229.263 222.836C228.721 224.383 228.122 226.026 227.465 227.766C226.846 229.506 226.44 230.995 226.247 232.232C223.192 232.232 220.157 232.193 217.141 232.116C214.125 232.039 210.722 232 206.933 232C205.618 232 204.439 232.019 203.395 232.058C202.351 232.135 201.268 232.174 200.147 232.174C199.992 232.019 199.915 231.749 199.915 231.362C199.953 230.975 200.031 230.705 200.147 230.55C200.379 230.55 200.804 230.531 201.423 230.492C202.041 230.415 202.621 230.299 203.163 230.144C203.743 229.989 204.052 229.815 204.091 229.622C204.245 229.158 204.323 228.559 204.323 227.824C204.361 227.089 204.381 226.297 204.381 225.446V201.26C204.381 200.409 204.361 199.617 204.323 198.882C204.323 198.109 204.245 197.49 204.091 197.026C204.052 196.794 203.743 196.62 203.163 196.504C202.621 196.388 202.041 196.311 201.423 196.272C200.804 196.195 200.379 196.156 200.147 196.156C200.031 196.001 199.953 195.731 199.915 195.344C199.915 194.957 199.992 194.687 200.147 194.532C201.307 194.571 202.447 194.629 203.569 194.706C204.69 194.745 205.792 194.764 206.875 194.764C207.996 194.764 209.079 194.745 210.123 194.706C211.205 194.629 212.327 194.571 213.487 194.532C213.641 194.687 213.699 194.957 213.661 195.344C213.661 195.731 213.603 196.001 213.487 196.156C213.255 196.156 212.829 196.195 212.211 196.272C211.592 196.311 211.012 196.388 210.471 196.504C209.929 196.62 209.62 196.794 209.543 197.026C209.427 197.413 209.349 197.915 209.311 198.534C209.311 199.153 209.311 199.829 209.311 200.564C209.311 200.68 209.311 200.796 209.311 200.912C209.311 201.028 209.311 201.144 209.311 201.26V225.446ZM236.617 224.112C236.617 224.112 236.791 223.648 237.139 222.72C237.526 221.753 238.029 220.458 238.647 218.834C239.266 217.21 239.962 215.412 240.735 213.44C241.547 211.429 242.359 209.38 243.171 207.292C243.983 205.165 244.757 203.135 245.491 201.202C246.265 199.269 246.941 197.567 247.521 196.098C247.676 195.789 248.005 195.441 248.507 195.054C249.049 194.667 249.455 194.474 249.725 194.474C249.803 194.474 249.841 194.493 249.841 194.532C249.88 194.532 249.938 194.551 250.015 194.59L261.557 224.866C262.408 227.109 262.891 228.346 263.007 228.578C263.201 229.003 263.568 229.371 264.109 229.68C264.689 229.989 265.25 230.221 265.791 230.376C266.371 230.492 266.739 230.55 266.893 230.55C267.048 230.743 267.106 231.053 267.067 231.478C267.029 231.865 266.99 232.097 266.951 232.174C265.83 232.097 264.825 232.039 263.935 232C263.046 231.923 261.983 231.884 260.745 231.884C259.431 231.884 258.329 231.923 257.439 232C256.589 232.039 255.506 232.097 254.191 232.174C254.037 232.019 253.959 231.749 253.959 231.362C253.998 230.975 254.095 230.705 254.249 230.55C254.597 230.55 255.139 230.492 255.873 230.376C256.608 230.221 257.111 230.028 257.381 229.796C257.536 229.641 257.613 229.371 257.613 228.984C257.613 228.636 257.478 228.056 257.207 227.244C256.975 226.393 256.666 225.446 256.279 224.402C255.893 223.358 255.506 222.353 255.119 221.386C254.733 220.381 254.404 219.569 254.133 218.95C253.901 218.293 253.785 217.964 253.785 217.964C253.785 217.964 253.747 217.925 253.669 217.848C253.592 217.771 253.515 217.732 253.437 217.732C252.857 217.693 252.142 217.674 251.291 217.674C250.441 217.674 249.648 217.674 248.913 217.674C248.72 217.674 248.527 217.674 248.333 217.674C248.14 217.674 247.966 217.674 247.811 217.674C246.651 217.674 245.665 217.693 244.853 217.732C244.041 217.732 242.997 217.771 241.721 217.848C241.683 217.848 241.625 217.887 241.547 217.964C241.47 218.003 241.431 218.022 241.431 218.022C241.431 218.022 241.277 218.409 240.967 219.182C240.697 219.955 240.349 220.883 239.923 221.966C239.537 223.01 239.189 223.996 238.879 224.924C238.531 225.891 238.299 226.703 238.183 227.36C238.106 228.017 238.067 228.539 238.067 228.926C238.067 229.351 238.357 229.699 238.937 229.97C239.556 230.202 240.175 230.357 240.793 230.434C241.451 230.511 241.857 230.55 242.011 230.55C242.089 230.627 242.147 230.879 242.185 231.304C242.224 231.691 242.205 231.981 242.127 232.174C241.393 232.135 240.755 232.097 240.213 232.058C239.711 232.019 239.189 231.981 238.647 231.942C238.145 231.903 237.468 231.884 236.617 231.884C235.767 231.884 235.051 231.903 234.471 231.942C233.891 231.981 233.311 232.019 232.731 232.058C232.151 232.097 231.417 232.135 230.527 232.174C230.45 232.097 230.411 231.865 230.411 231.478C230.411 231.053 230.45 230.743 230.527 230.55C230.875 230.55 231.455 230.473 232.267 230.318C233.118 230.125 233.679 229.835 233.949 229.448C234.529 228.713 235.013 227.901 235.399 227.012C235.825 226.084 236.231 225.117 236.617 224.112ZM247.695 201.318L242.533 215.122C242.533 215.122 242.533 215.161 242.533 215.238C242.572 215.315 242.611 215.354 242.649 215.354C243.384 215.393 244.254 215.431 245.259 215.47C246.303 215.47 247.135 215.47 247.753 215.47C248.643 215.47 249.435 215.451 250.131 215.412C250.866 215.373 251.659 215.335 252.509 215.296C252.587 215.296 252.625 215.257 252.625 215.18C252.664 215.064 252.683 215.006 252.683 215.006L247.695 201.318ZM283.267 194.3C284.466 194.3 285.452 194.377 286.225 194.532C287.037 194.648 287.849 194.822 288.661 195.054C289.512 195.286 290.556 195.557 291.793 195.866C292.025 197.335 292.199 198.863 292.315 200.448C292.47 201.995 292.566 203.155 292.605 203.928C292.644 204.121 292.508 204.276 292.199 204.392C291.89 204.469 291.638 204.508 291.445 204.508C291.174 204.508 290.962 204.431 290.807 204.276C290.73 203.58 290.498 202.768 290.111 201.84C289.724 200.912 289.183 200.023 288.487 199.172C287.83 198.321 287.018 197.625 286.051 197.084C285.123 196.504 284.06 196.214 282.861 196.214C281.314 196.214 280.096 196.543 279.207 197.2C278.318 197.857 277.68 198.669 277.293 199.636C276.906 200.603 276.713 201.55 276.713 202.478C276.713 203.986 277.1 205.243 277.873 206.248C278.685 207.253 279.69 208.143 280.889 208.916C282.126 209.689 283.364 210.482 284.601 211.294C285.529 211.874 286.554 212.512 287.675 213.208C288.796 213.904 289.879 214.677 290.923 215.528C291.967 216.379 292.818 217.365 293.475 218.486C294.132 219.569 294.461 220.806 294.461 222.198C294.461 224.247 293.881 226.065 292.721 227.65C291.6 229.197 290.13 230.415 288.313 231.304C286.534 232.155 284.64 232.58 282.629 232.58C280.734 232.58 278.898 232.367 277.119 231.942C275.379 231.517 273.813 231.169 272.421 230.898C272.189 229.777 271.976 228.578 271.783 227.302C271.628 226.026 271.493 224.905 271.377 223.938C271.3 222.971 271.261 222.372 271.261 222.14C271.454 221.947 271.667 221.792 271.899 221.676C272.17 221.521 272.44 221.444 272.711 221.444C273.059 221.444 273.272 221.618 273.349 221.966C273.465 222.507 273.697 223.261 274.045 224.228C274.432 225.156 274.973 226.123 275.669 227.128C276.404 228.133 277.332 228.984 278.453 229.68C279.613 230.337 281.044 230.666 282.745 230.666C284.562 230.666 286.148 230.067 287.501 228.868C288.854 227.631 289.531 225.91 289.531 223.706C289.531 222.121 289.164 220.883 288.429 219.994C287.733 219.105 286.805 218.331 285.645 217.674C284.524 217.017 283.306 216.321 281.991 215.586C280.56 214.735 279.072 213.807 277.525 212.802C276.017 211.758 274.741 210.54 273.697 209.148C272.653 207.756 272.131 206.113 272.131 204.218C272.131 202.207 272.653 200.467 273.697 198.998C274.78 197.49 276.172 196.33 277.873 195.518C279.574 194.706 281.372 194.3 283.267 194.3Z" fill="#343B4D"/>
</svg>
