<svg viewBox="45 105 412 57" fill="none" xmlns="http://www.w3.org/2000/svg">
<path d="M78.8795 112C78.8795 110.343 80.2227 109 81.8795 109H88C88.5523 109 89 109.448 89 110V157.193H78.8795V112Z" fill="#C8B280"/>
<path d="M63.9398 122.12C63.9398 120.464 65.2829 119.12 66.9398 119.12H73.0602C73.6125 119.12 74.0602 119.568 74.0602 120.12V157.193H63.9398V122.12Z" fill="#343B4D"/>
<path d="M49 132.241C49 130.584 50.3431 129.241 52 129.241H58.1205C58.6728 129.241 59.1205 129.689 59.1205 130.241V157.193H49V132.241Z" fill="#343B4D"/>
<path d="M129.866 119.242C131.722 119.242 133.655 119.319 135.666 119.474C137.715 119.629 139.784 119.938 141.872 120.402C141.872 120.402 141.93 120.808 142.046 121.62C142.201 122.393 142.355 123.321 142.51 124.404C142.665 125.448 142.8 126.415 142.916 127.304C143.071 128.155 143.148 128.657 143.148 128.812C143.187 128.967 143.071 129.121 142.8 129.276C142.529 129.431 142.239 129.508 141.93 129.508C141.659 129.508 141.427 129.45 141.234 129.334C141.157 128.909 140.963 128.251 140.654 127.362C140.383 126.473 139.861 125.545 139.088 124.578C138.353 123.611 137.271 122.799 135.84 122.142C134.409 121.446 132.515 121.098 130.156 121.098C128.068 121.098 126.173 121.581 124.472 122.548C122.771 123.476 121.301 124.752 120.064 126.376C118.865 127.961 117.937 129.74 117.28 131.712C116.661 133.645 116.352 135.598 116.352 137.57C116.352 139.774 116.642 141.939 117.222 144.066C117.841 146.193 118.749 148.126 119.948 149.866C121.185 151.567 122.713 152.94 124.53 153.984C126.386 154.989 128.551 155.492 131.026 155.492C132.766 155.492 134.235 155.221 135.434 154.68C136.671 154.139 137.696 153.501 138.508 152.766C139.629 151.761 140.441 150.639 140.944 149.402C141.447 148.165 141.795 147.082 141.988 146.154C142.645 146.077 143.245 146.231 143.786 146.618C143.786 146.889 143.709 147.43 143.554 148.242C143.438 149.054 143.283 149.943 143.09 150.91C142.897 151.838 142.684 152.669 142.452 153.404C142.22 154.139 142.007 154.603 141.814 154.796C140.267 155.647 138.508 156.285 136.536 156.71C134.564 157.135 132.263 157.348 129.634 157.348C126.85 157.348 124.298 156.865 121.978 155.898C119.658 154.893 117.647 153.539 115.946 151.838C114.283 150.098 112.988 148.126 112.06 145.922C111.171 143.679 110.726 141.301 110.726 138.788C110.726 136.12 111.19 133.626 112.118 131.306C113.085 128.947 114.419 126.859 116.12 125.042C117.821 123.225 119.832 121.813 122.152 120.808C124.511 119.764 127.082 119.242 129.866 119.242ZM157.196 119.764C158.317 119.764 159.4 119.745 160.444 119.706C161.526 119.629 162.648 119.571 163.808 119.532C163.962 119.687 164.02 119.957 163.982 120.344C163.982 120.731 163.924 121.001 163.808 121.156C163.576 121.156 163.15 121.195 162.532 121.272C161.913 121.311 161.333 121.388 160.792 121.504C160.25 121.62 159.941 121.794 159.864 122.026C159.748 122.413 159.67 122.915 159.632 123.534C159.632 124.153 159.632 124.829 159.632 125.564C159.632 125.68 159.632 125.796 159.632 125.912C159.632 126.028 159.632 126.144 159.632 126.26V150.446C159.632 150.562 159.632 150.678 159.632 150.794C159.632 150.91 159.632 151.026 159.632 151.142C159.632 151.877 159.632 152.553 159.632 153.172C159.67 153.752 159.748 154.235 159.864 154.622C159.941 154.815 160.25 154.989 160.792 155.144C161.333 155.299 161.913 155.415 162.532 155.492C163.15 155.531 163.576 155.55 163.808 155.55C163.924 155.705 163.982 155.975 163.982 156.362C164.02 156.749 163.962 157.019 163.808 157.174C162.648 157.097 161.526 157.039 160.444 157C159.4 156.923 158.317 156.884 157.196 156.884C156.113 156.884 155.011 156.923 153.89 157C152.768 157.039 151.628 157.097 150.468 157.174C150.313 157.019 150.236 156.749 150.236 156.362C150.274 155.975 150.352 155.705 150.468 155.55C150.7 155.55 151.125 155.531 151.744 155.492C152.362 155.415 152.942 155.299 153.484 155.144C154.064 154.989 154.373 154.815 154.412 154.622C154.566 154.158 154.644 153.559 154.644 152.824C154.682 152.089 154.702 151.297 154.702 150.446V126.26C154.702 125.409 154.682 124.617 154.644 123.882C154.644 123.109 154.566 122.49 154.412 122.026C154.373 121.794 154.064 121.62 153.484 121.504C152.942 121.388 152.362 121.311 151.744 121.272C151.125 121.195 150.7 121.156 150.468 121.156C150.352 121.001 150.274 120.731 150.236 120.344C150.236 119.957 150.313 119.687 150.468 119.532C151.628 119.571 152.768 119.629 153.89 119.706C155.011 119.745 156.113 119.764 157.196 119.764ZM174.213 119.764C175.451 119.764 176.649 119.745 177.809 119.706C178.969 119.629 180.11 119.571 181.231 119.532C181.309 119.687 181.328 119.996 181.289 120.46C181.289 120.885 181.231 121.117 181.115 121.156C180.961 121.156 180.593 121.214 180.013 121.33C179.472 121.407 178.95 121.581 178.447 121.852C177.945 122.084 177.693 122.471 177.693 123.012C177.693 123.631 178.041 124.907 178.737 126.84C179.047 127.691 179.453 128.831 179.955 130.262C180.497 131.654 181.077 133.201 181.695 134.902C182.314 136.603 182.933 138.305 183.551 140.006C184.209 141.707 184.789 143.273 185.291 144.704C185.833 146.135 186.258 147.314 186.567 148.242C186.915 149.131 187.109 149.615 187.147 149.692C187.225 149.537 187.476 148.957 187.901 147.952C188.327 146.908 188.849 145.593 189.467 144.008C190.125 142.423 190.84 140.683 191.613 138.788C192.387 136.855 193.16 134.902 193.933 132.93C194.745 130.958 195.499 129.102 196.195 127.362C196.466 126.705 196.698 126.009 196.891 125.274C197.085 124.539 197.181 123.921 197.181 123.418C197.181 122.799 196.911 122.335 196.369 122.026C195.867 121.717 195.306 121.504 194.687 121.388C194.107 121.272 193.701 121.214 193.469 121.214C193.315 121.137 193.237 120.885 193.237 120.46C193.237 119.996 193.315 119.687 193.469 119.532C194.513 119.571 195.499 119.629 196.427 119.706C197.355 119.745 198.341 119.764 199.385 119.764C200.275 119.764 200.971 119.764 201.473 119.764C202.015 119.725 202.537 119.687 203.039 119.648C203.542 119.609 204.161 119.571 204.895 119.532C204.973 119.687 204.992 119.996 204.953 120.46C204.915 120.924 204.857 121.156 204.779 121.156C204.547 121.156 204.006 121.253 203.155 121.446C202.343 121.639 201.686 122.026 201.183 122.606C200.835 122.993 200.371 123.785 199.791 124.984C199.25 126.144 198.767 127.265 198.341 128.348C197.297 130.939 196.331 133.317 195.441 135.482C194.591 137.647 193.74 139.735 192.889 141.746C192.077 143.757 191.227 145.845 190.337 148.01C189.448 150.175 188.443 152.573 187.321 155.202C187.012 155.937 186.664 156.439 186.277 156.71C185.929 156.981 185.562 157.116 185.175 157.116C185.059 157.116 184.963 157 184.885 156.768C184.808 156.497 184.731 156.304 184.653 156.188C183.377 152.824 182.179 149.692 181.057 146.792C179.975 143.853 178.853 140.876 177.693 137.86C176.572 134.844 175.296 131.519 173.865 127.884C173.44 126.763 173.015 125.757 172.589 124.868C172.203 123.979 171.758 123.167 171.255 122.432C171.062 122.123 170.714 121.871 170.211 121.678C169.709 121.485 169.206 121.349 168.703 121.272C168.239 121.195 167.891 121.156 167.659 121.156C167.621 121.156 167.601 120.905 167.601 120.402C167.601 119.861 167.621 119.571 167.659 119.532C168.974 119.571 170.057 119.629 170.907 119.706C171.797 119.745 172.899 119.764 174.213 119.764ZM215.164 119.764C216.285 119.764 217.368 119.745 218.412 119.706C219.495 119.629 220.616 119.571 221.776 119.532C221.931 119.687 221.989 119.957 221.95 120.344C221.95 120.731 221.892 121.001 221.776 121.156C221.544 121.156 221.119 121.195 220.5 121.272C219.881 121.311 219.301 121.388 218.76 121.504C218.219 121.62 217.909 121.794 217.832 122.026C217.716 122.413 217.639 122.915 217.6 123.534C217.6 124.153 217.6 124.829 217.6 125.564C217.6 125.68 217.6 125.796 217.6 125.912C217.6 126.028 217.6 126.144 217.6 126.26V150.446C217.6 150.562 217.6 150.678 217.6 150.794C217.6 150.91 217.6 151.026 217.6 151.142C217.6 151.877 217.6 152.553 217.6 153.172C217.639 153.752 217.716 154.235 217.832 154.622C217.909 154.815 218.219 154.989 218.76 155.144C219.301 155.299 219.881 155.415 220.5 155.492C221.119 155.531 221.544 155.55 221.776 155.55C221.892 155.705 221.95 155.975 221.95 156.362C221.989 156.749 221.931 157.019 221.776 157.174C220.616 157.097 219.495 157.039 218.412 157C217.368 156.923 216.285 156.884 215.164 156.884C214.081 156.884 212.979 156.923 211.858 157C210.737 157.039 209.596 157.097 208.436 157.174C208.281 157.019 208.204 156.749 208.204 156.362C208.243 155.975 208.32 155.705 208.436 155.55C208.668 155.55 209.093 155.531 209.712 155.492C210.331 155.415 210.911 155.299 211.452 155.144C212.032 154.989 212.341 154.815 212.38 154.622C212.535 154.158 212.612 153.559 212.612 152.824C212.651 152.089 212.67 151.297 212.67 150.446V126.26C212.67 125.409 212.651 124.617 212.612 123.882C212.612 123.109 212.535 122.49 212.38 122.026C212.341 121.794 212.032 121.62 211.452 121.504C210.911 121.388 210.331 121.311 209.712 121.272C209.093 121.195 208.668 121.156 208.436 121.156C208.32 121.001 208.243 120.731 208.204 120.344C208.204 119.957 208.281 119.687 208.436 119.532C209.596 119.571 210.737 119.629 211.858 119.706C212.979 119.745 214.081 119.764 215.164 119.764ZM247.332 119.242C249.188 119.242 251.121 119.319 253.132 119.474C255.181 119.629 257.25 119.938 259.338 120.402C259.338 120.402 259.396 120.808 259.512 121.62C259.667 122.393 259.821 123.321 259.976 124.404C260.131 125.448 260.266 126.415 260.382 127.304C260.537 128.155 260.614 128.657 260.614 128.812C260.653 128.967 260.537 129.121 260.266 129.276C259.995 129.431 259.705 129.508 259.396 129.508C259.125 129.508 258.893 129.45 258.7 129.334C258.623 128.909 258.429 128.251 258.12 127.362C257.849 126.473 257.327 125.545 256.554 124.578C255.819 123.611 254.737 122.799 253.306 122.142C251.875 121.446 249.981 121.098 247.622 121.098C245.534 121.098 243.639 121.581 241.938 122.548C240.237 123.476 238.767 124.752 237.53 126.376C236.331 127.961 235.403 129.74 234.746 131.712C234.127 133.645 233.818 135.598 233.818 137.57C233.818 139.774 234.108 141.939 234.688 144.066C235.307 146.193 236.215 148.126 237.414 149.866C238.651 151.567 240.179 152.94 241.996 153.984C243.852 154.989 246.017 155.492 248.492 155.492C250.232 155.492 251.701 155.221 252.9 154.68C254.137 154.139 255.162 153.501 255.974 152.766C257.095 151.761 257.907 150.639 258.41 149.402C258.913 148.165 259.261 147.082 259.454 146.154C260.111 146.077 260.711 146.231 261.252 146.618C261.252 146.889 261.175 147.43 261.02 148.242C260.904 149.054 260.749 149.943 260.556 150.91C260.363 151.838 260.15 152.669 259.918 153.404C259.686 154.139 259.473 154.603 259.28 154.796C257.733 155.647 255.974 156.285 254.002 156.71C252.03 157.135 249.729 157.348 247.1 157.348C244.316 157.348 241.764 156.865 239.444 155.898C237.124 154.893 235.113 153.539 233.412 151.838C231.749 150.098 230.454 148.126 229.526 145.922C228.637 143.679 228.192 141.301 228.192 138.788C228.192 136.12 228.656 133.626 229.584 131.306C230.551 128.947 231.885 126.859 233.586 125.042C235.287 123.225 237.298 121.813 239.618 120.808C241.977 119.764 244.548 119.242 247.332 119.242ZM289.451 149.112C289.451 149.112 289.625 148.648 289.973 147.72C290.36 146.753 290.863 145.458 291.481 143.834C292.1 142.21 292.796 140.412 293.569 138.44C294.381 136.429 295.193 134.38 296.005 132.292C296.817 130.165 297.591 128.135 298.325 126.202C299.099 124.269 299.775 122.567 300.355 121.098C300.51 120.789 300.839 120.441 301.341 120.054C301.883 119.667 302.289 119.474 302.559 119.474C302.637 119.474 302.675 119.493 302.675 119.532C302.714 119.532 302.772 119.551 302.849 119.59L314.391 149.866C315.242 152.109 315.725 153.346 315.841 153.578C316.035 154.003 316.402 154.371 316.943 154.68C317.523 154.989 318.084 155.221 318.625 155.376C319.205 155.492 319.573 155.55 319.727 155.55C319.882 155.743 319.94 156.053 319.901 156.478C319.863 156.865 319.824 157.097 319.785 157.174C318.664 157.097 317.659 157.039 316.769 157C315.88 156.923 314.817 156.884 313.579 156.884C312.265 156.884 311.163 156.923 310.273 157C309.423 157.039 308.34 157.097 307.025 157.174C306.871 157.019 306.793 156.749 306.793 156.362C306.832 155.975 306.929 155.705 307.083 155.55C307.431 155.55 307.973 155.492 308.707 155.376C309.442 155.221 309.945 155.028 310.215 154.796C310.37 154.641 310.447 154.371 310.447 153.984C310.447 153.636 310.312 153.056 310.041 152.244C309.809 151.393 309.5 150.446 309.113 149.402C308.727 148.358 308.34 147.353 307.953 146.386C307.567 145.381 307.238 144.569 306.967 143.95C306.735 143.293 306.619 142.964 306.619 142.964C306.619 142.964 306.581 142.925 306.503 142.848C306.426 142.771 306.349 142.732 306.271 142.732C305.691 142.693 304.976 142.674 304.125 142.674C303.275 142.674 302.482 142.674 301.747 142.674C301.554 142.674 301.361 142.674 301.167 142.674C300.974 142.674 300.8 142.674 300.645 142.674C299.485 142.674 298.499 142.693 297.687 142.732C296.875 142.732 295.831 142.771 294.555 142.848C294.517 142.848 294.459 142.887 294.381 142.964C294.304 143.003 294.265 143.022 294.265 143.022C294.265 143.022 294.111 143.409 293.801 144.182C293.531 144.955 293.183 145.883 292.757 146.966C292.371 148.01 292.023 148.996 291.713 149.924C291.365 150.891 291.133 151.703 291.017 152.36C290.94 153.017 290.901 153.539 290.901 153.926C290.901 154.351 291.191 154.699 291.771 154.97C292.39 155.202 293.009 155.357 293.627 155.434C294.285 155.511 294.691 155.55 294.845 155.55C294.923 155.627 294.981 155.879 295.019 156.304C295.058 156.691 295.039 156.981 294.961 157.174C294.227 157.135 293.589 157.097 293.047 157.058C292.545 157.019 292.023 156.981 291.481 156.942C290.979 156.903 290.302 156.884 289.451 156.884C288.601 156.884 287.885 156.903 287.305 156.942C286.725 156.981 286.145 157.019 285.565 157.058C284.985 157.097 284.251 157.135 283.361 157.174C283.284 157.097 283.245 156.865 283.245 156.478C283.245 156.053 283.284 155.743 283.361 155.55C283.709 155.55 284.289 155.473 285.101 155.318C285.952 155.125 286.513 154.835 286.783 154.448C287.363 153.713 287.847 152.901 288.233 152.012C288.659 151.084 289.065 150.117 289.451 149.112ZM300.529 126.318L295.367 140.122C295.367 140.122 295.367 140.161 295.367 140.238C295.406 140.315 295.445 140.354 295.483 140.354C296.218 140.393 297.088 140.431 298.093 140.47C299.137 140.47 299.969 140.47 300.587 140.47C301.477 140.47 302.269 140.451 302.965 140.412C303.7 140.373 304.493 140.335 305.343 140.296C305.421 140.296 305.459 140.257 305.459 140.18C305.498 140.064 305.517 140.006 305.517 140.006L300.529 126.318ZM347.134 119.532C347.598 119.532 348.197 119.435 348.932 119.242C349.666 119.049 350.208 118.875 350.556 118.72C350.865 118.565 351.078 118.488 351.194 118.488C351.31 118.488 351.445 118.527 351.6 118.604C351.793 120.344 352.006 122.026 352.238 123.65C352.508 125.274 352.798 126.84 353.108 128.348C353.03 128.425 352.895 128.522 352.702 128.638C352.508 128.754 352.276 128.793 352.006 128.754C351.58 128.754 351.31 128.657 351.194 128.464C350.807 126.492 350.169 124.849 349.28 123.534C348.39 122.219 347.23 121.562 345.8 121.562H338.608V150.446C338.608 151.297 338.608 152.089 338.608 152.824C338.646 153.559 338.743 154.158 338.898 154.622C338.975 154.815 339.284 154.989 339.826 155.144C340.367 155.299 340.928 155.415 341.508 155.492C342.126 155.531 342.552 155.55 342.784 155.55C342.9 155.705 342.958 155.975 342.958 156.362C342.996 156.749 342.938 157.019 342.784 157.174C341.624 157.097 340.502 157.039 339.42 157C338.376 156.923 337.293 156.884 336.172 156.884C335.089 156.884 333.987 156.923 332.866 157C331.744 157.039 330.604 157.097 329.444 157.174C329.289 157.019 329.212 156.749 329.212 156.362C329.25 155.975 329.328 155.705 329.444 155.55C329.676 155.55 330.101 155.531 330.72 155.492C331.338 155.415 331.918 155.299 332.46 155.144C333.04 154.989 333.349 154.815 333.388 154.622C333.542 154.158 333.62 153.559 333.62 152.824C333.658 152.089 333.678 151.297 333.678 150.446V121.562H326.37C324.939 121.562 323.779 122.219 322.89 123.534C322 124.849 321.343 126.492 320.918 128.464C320.802 128.657 320.531 128.754 320.106 128.754C319.835 128.793 319.603 128.754 319.41 128.638C319.255 128.522 319.139 128.425 319.062 128.348C319.371 126.84 319.642 125.274 319.874 123.65C320.106 122.026 320.318 120.344 320.512 118.604C320.705 118.527 320.937 118.527 321.208 118.604C321.478 118.643 321.691 118.701 321.846 118.778C322.194 118.933 322.677 119.107 323.296 119.3C323.953 119.455 324.514 119.532 324.978 119.532H347.134ZM367.279 150.446C367.279 150.523 367.279 150.639 367.279 150.794C367.279 151.142 367.279 151.606 367.279 152.186C367.279 152.727 367.298 153.23 367.337 153.694C367.375 154.158 367.453 154.429 367.569 154.506C367.955 154.777 368.419 154.951 368.961 155.028C369.541 155.067 370.43 155.086 371.629 155.086H374.819C375.901 155.086 377.081 154.97 378.357 154.738C379.671 154.467 380.715 154.061 381.489 153.52C382.185 153.017 382.823 152.321 383.403 151.432C384.021 150.543 384.563 149.344 385.027 147.836C385.104 147.604 385.375 147.488 385.839 147.488C386.535 147.488 386.999 147.604 387.231 147.836C386.689 149.383 386.09 151.026 385.433 152.766C384.814 154.506 384.408 155.995 384.215 157.232C381.16 157.232 378.125 157.193 375.109 157.116C372.093 157.039 368.69 157 364.901 157C363.586 157 362.407 157.019 361.363 157.058C360.319 157.135 359.236 157.174 358.115 157.174C357.96 157.019 357.883 156.749 357.883 156.362C357.921 155.975 357.999 155.705 358.115 155.55C358.347 155.55 358.772 155.531 359.391 155.492C360.009 155.415 360.589 155.299 361.131 155.144C361.711 154.989 362.02 154.815 362.059 154.622C362.213 154.158 362.291 153.559 362.291 152.824C362.329 152.089 362.349 151.297 362.349 150.446V126.26C362.349 125.409 362.329 124.617 362.291 123.882C362.291 123.109 362.213 122.49 362.059 122.026C362.02 121.794 361.711 121.62 361.131 121.504C360.589 121.388 360.009 121.311 359.391 121.272C358.772 121.195 358.347 121.156 358.115 121.156C357.999 121.001 357.921 120.731 357.883 120.344C357.883 119.957 357.96 119.687 358.115 119.532C359.275 119.571 360.415 119.629 361.537 119.706C362.658 119.745 363.76 119.764 364.843 119.764C365.964 119.764 367.047 119.745 368.091 119.706C369.173 119.629 370.295 119.571 371.455 119.532C371.609 119.687 371.667 119.957 371.629 120.344C371.629 120.731 371.571 121.001 371.455 121.156C371.223 121.156 370.797 121.195 370.179 121.272C369.56 121.311 368.98 121.388 368.439 121.504C367.897 121.62 367.588 121.794 367.511 122.026C367.395 122.413 367.317 122.915 367.279 123.534C367.279 124.153 367.279 124.829 367.279 125.564C367.279 125.68 367.279 125.796 367.279 125.912C367.279 126.028 367.279 126.144 367.279 126.26V150.446ZM394.585 149.112C394.585 149.112 394.759 148.648 395.107 147.72C395.494 146.753 395.997 145.458 396.615 143.834C397.234 142.21 397.93 140.412 398.703 138.44C399.515 136.429 400.327 134.38 401.139 132.292C401.951 130.165 402.725 128.135 403.459 126.202C404.233 124.269 404.909 122.567 405.489 121.098C405.644 120.789 405.973 120.441 406.475 120.054C407.017 119.667 407.423 119.474 407.693 119.474C407.771 119.474 407.809 119.493 407.809 119.532C407.848 119.532 407.906 119.551 407.983 119.59L419.525 149.866C420.376 152.109 420.859 153.346 420.975 153.578C421.169 154.003 421.536 154.371 422.077 154.68C422.657 154.989 423.218 155.221 423.759 155.376C424.339 155.492 424.707 155.55 424.861 155.55C425.016 155.743 425.074 156.053 425.035 156.478C424.997 156.865 424.958 157.097 424.919 157.174C423.798 157.097 422.793 157.039 421.903 157C421.014 156.923 419.951 156.884 418.713 156.884C417.399 156.884 416.297 156.923 415.407 157C414.557 157.039 413.474 157.097 412.159 157.174C412.005 157.019 411.927 156.749 411.927 156.362C411.966 155.975 412.063 155.705 412.217 155.55C412.565 155.55 413.107 155.492 413.841 155.376C414.576 155.221 415.079 155.028 415.349 154.796C415.504 154.641 415.581 154.371 415.581 153.984C415.581 153.636 415.446 153.056 415.175 152.244C414.943 151.393 414.634 150.446 414.247 149.402C413.861 148.358 413.474 147.353 413.087 146.386C412.701 145.381 412.372 144.569 412.101 143.95C411.869 143.293 411.753 142.964 411.753 142.964C411.753 142.964 411.715 142.925 411.637 142.848C411.56 142.771 411.483 142.732 411.405 142.732C410.825 142.693 410.11 142.674 409.259 142.674C408.409 142.674 407.616 142.674 406.881 142.674C406.688 142.674 406.495 142.674 406.301 142.674C406.108 142.674 405.934 142.674 405.779 142.674C404.619 142.674 403.633 142.693 402.821 142.732C402.009 142.732 400.965 142.771 399.689 142.848C399.651 142.848 399.593 142.887 399.515 142.964C399.438 143.003 399.399 143.022 399.399 143.022C399.399 143.022 399.245 143.409 398.935 144.182C398.665 144.955 398.317 145.883 397.891 146.966C397.505 148.01 397.157 148.996 396.847 149.924C396.499 150.891 396.267 151.703 396.151 152.36C396.074 153.017 396.035 153.539 396.035 153.926C396.035 154.351 396.325 154.699 396.905 154.97C397.524 155.202 398.143 155.357 398.761 155.434C399.419 155.511 399.825 155.55 399.979 155.55C400.057 155.627 400.115 155.879 400.153 156.304C400.192 156.691 400.173 156.981 400.095 157.174C399.361 157.135 398.723 157.097 398.181 157.058C397.679 157.019 397.157 156.981 396.615 156.942C396.113 156.903 395.436 156.884 394.585 156.884C393.735 156.884 393.019 156.903 392.439 156.942C391.859 156.981 391.279 157.019 390.699 157.058C390.119 157.097 389.385 157.135 388.495 157.174C388.418 157.097 388.379 156.865 388.379 156.478C388.379 156.053 388.418 155.743 388.495 155.55C388.843 155.55 389.423 155.473 390.235 155.318C391.086 155.125 391.647 154.835 391.917 154.448C392.497 153.713 392.981 152.901 393.367 152.012C393.793 151.084 394.199 150.117 394.585 149.112ZM405.663 126.318L400.501 140.122C400.501 140.122 400.501 140.161 400.501 140.238C400.54 140.315 400.579 140.354 400.617 140.354C401.352 140.393 402.222 140.431 403.227 140.47C404.271 140.47 405.103 140.47 405.721 140.47C406.611 140.47 407.403 140.451 408.099 140.412C408.834 140.373 409.627 140.335 410.477 140.296C410.555 140.296 410.593 140.257 410.593 140.18C410.632 140.064 410.651 140.006 410.651 140.006L405.663 126.318ZM441.235 119.3C442.434 119.3 443.42 119.377 444.193 119.532C445.005 119.648 445.817 119.822 446.629 120.054C447.48 120.286 448.524 120.557 449.761 120.866C449.993 122.335 450.167 123.863 450.283 125.448C450.438 126.995 450.534 128.155 450.573 128.928C450.612 129.121 450.476 129.276 450.167 129.392C449.858 129.469 449.606 129.508 449.413 129.508C449.142 129.508 448.93 129.431 448.775 129.276C448.698 128.58 448.466 127.768 448.079 126.84C447.692 125.912 447.151 125.023 446.455 124.172C445.798 123.321 444.986 122.625 444.019 122.084C443.091 121.504 442.028 121.214 440.829 121.214C439.282 121.214 438.064 121.543 437.175 122.2C436.286 122.857 435.648 123.669 435.261 124.636C434.874 125.603 434.681 126.55 434.681 127.478C434.681 128.986 435.068 130.243 435.841 131.248C436.653 132.253 437.658 133.143 438.857 133.916C440.094 134.689 441.332 135.482 442.569 136.294C443.497 136.874 444.522 137.512 445.643 138.208C446.764 138.904 447.847 139.677 448.891 140.528C449.935 141.379 450.786 142.365 451.443 143.486C452.1 144.569 452.429 145.806 452.429 147.198C452.429 149.247 451.849 151.065 450.689 152.65C449.568 154.197 448.098 155.415 446.281 156.304C444.502 157.155 442.608 157.58 440.597 157.58C438.702 157.58 436.866 157.367 435.087 156.942C433.347 156.517 431.781 156.169 430.389 155.898C430.157 154.777 429.944 153.578 429.751 152.302C429.596 151.026 429.461 149.905 429.345 148.938C429.268 147.971 429.229 147.372 429.229 147.14C429.422 146.947 429.635 146.792 429.867 146.676C430.138 146.521 430.408 146.444 430.679 146.444C431.027 146.444 431.24 146.618 431.317 146.966C431.433 147.507 431.665 148.261 432.013 149.228C432.4 150.156 432.941 151.123 433.637 152.128C434.372 153.133 435.3 153.984 436.421 154.68C437.581 155.337 439.012 155.666 440.713 155.666C442.53 155.666 444.116 155.067 445.469 153.868C446.822 152.631 447.499 150.91 447.499 148.706C447.499 147.121 447.132 145.883 446.397 144.994C445.701 144.105 444.773 143.331 443.613 142.674C442.492 142.017 441.274 141.321 439.959 140.586C438.528 139.735 437.04 138.807 435.493 137.802C433.985 136.758 432.709 135.54 431.665 134.148C430.621 132.756 430.099 131.113 430.099 129.218C430.099 127.207 430.621 125.467 431.665 123.998C432.748 122.49 434.14 121.33 435.841 120.518C437.542 119.706 439.34 119.3 441.235 119.3Z" fill="#343B4D"/>
</svg>
