<svg viewBox="75 88 271 101" fill="none" xmlns="http://www.w3.org/2000/svg">
<path d="M79 134C79 132.343 80.3431 131 82 131H97C97.5523 131 98 131.448 98 132V184H79V134Z" fill="#343B4D"/>
<path d="M107 115C107 113.343 108.343 112 110 112H125C125.552 112 126 112.448 126 113V184H107V115Z" fill="#343B4D"/>
<path d="M135 95C135 93.3431 136.343 92 138 92H153C153.552 92 154 92.4477 154 93V184H135V95Z" fill="#C8B280"/>
<path d="M194.866 92.242C196.722 92.242 198.655 92.3193 200.666 92.474C202.715 92.6287 204.784 92.938 206.872 93.402C206.872 93.402 206.93 93.808 207.046 94.62C207.201 95.3933 207.355 96.3213 207.51 97.404C207.665 98.448 207.8 99.4147 207.916 100.304C208.071 101.155 208.148 101.657 208.148 101.812C208.187 101.967 208.071 102.121 207.8 102.276C207.529 102.431 207.239 102.508 206.93 102.508C206.659 102.508 206.427 102.45 206.234 102.334C206.157 101.909 205.963 101.251 205.654 100.362C205.383 99.4727 204.861 98.5447 204.088 97.578C203.353 96.6113 202.271 95.7993 200.84 95.142C199.409 94.446 197.515 94.098 195.156 94.098C193.068 94.098 191.173 94.5813 189.472 95.548C187.771 96.476 186.301 97.752 185.064 99.376C183.865 100.961 182.937 102.74 182.28 104.712C181.661 106.645 181.352 108.598 181.352 110.57C181.352 112.774 181.642 114.939 182.222 117.066C182.841 119.193 183.749 121.126 184.948 122.866C186.185 124.567 187.713 125.94 189.53 126.984C191.386 127.989 193.551 128.492 196.026 128.492C197.766 128.492 199.235 128.221 200.434 127.68C201.671 127.139 202.696 126.501 203.508 125.766C204.629 124.761 205.441 123.639 205.944 122.402C206.447 121.165 206.795 120.082 206.988 119.154C207.645 119.077 208.245 119.231 208.786 119.618C208.786 119.889 208.709 120.43 208.554 121.242C208.438 122.054 208.283 122.943 208.09 123.91C207.897 124.838 207.684 125.669 207.452 126.404C207.22 127.139 207.007 127.603 206.814 127.796C205.267 128.647 203.508 129.285 201.536 129.71C199.564 130.135 197.263 130.348 194.634 130.348C191.85 130.348 189.298 129.865 186.978 128.898C184.658 127.893 182.647 126.539 180.946 124.838C179.283 123.098 177.988 121.126 177.06 118.922C176.171 116.679 175.726 114.301 175.726 111.788C175.726 109.12 176.19 106.626 177.118 104.306C178.085 101.947 179.419 99.8593 181.12 98.042C182.821 96.2247 184.832 94.8133 187.152 93.808C189.511 92.764 192.082 92.242 194.866 92.242ZM222.196 92.764C223.317 92.764 224.4 92.7447 225.444 92.706C226.526 92.6287 227.648 92.5707 228.808 92.532C228.962 92.6867 229.02 92.9573 228.982 93.344C228.982 93.7307 228.924 94.0013 228.808 94.156C228.576 94.156 228.15 94.1947 227.532 94.272C226.913 94.3107 226.333 94.388 225.792 94.504C225.25 94.62 224.941 94.794 224.864 95.026C224.748 95.4127 224.67 95.9153 224.632 96.534C224.632 97.1527 224.632 97.8293 224.632 98.564C224.632 98.68 224.632 98.796 224.632 98.912C224.632 99.028 224.632 99.144 224.632 99.26V123.446C224.632 123.562 224.632 123.678 224.632 123.794C224.632 123.91 224.632 124.026 224.632 124.142C224.632 124.877 224.632 125.553 224.632 126.172C224.67 126.752 224.748 127.235 224.864 127.622C224.941 127.815 225.25 127.989 225.792 128.144C226.333 128.299 226.913 128.415 227.532 128.492C228.15 128.531 228.576 128.55 228.808 128.55C228.924 128.705 228.982 128.975 228.982 129.362C229.02 129.749 228.962 130.019 228.808 130.174C227.648 130.097 226.526 130.039 225.444 130C224.4 129.923 223.317 129.884 222.196 129.884C221.113 129.884 220.011 129.923 218.89 130C217.768 130.039 216.628 130.097 215.468 130.174C215.313 130.019 215.236 129.749 215.236 129.362C215.274 128.975 215.352 128.705 215.468 128.55C215.7 128.55 216.125 128.531 216.744 128.492C217.362 128.415 217.942 128.299 218.484 128.144C219.064 127.989 219.373 127.815 219.412 127.622C219.566 127.158 219.644 126.559 219.644 125.824C219.682 125.089 219.702 124.297 219.702 123.446V99.26C219.702 98.4093 219.682 97.6167 219.644 96.882C219.644 96.1087 219.566 95.49 219.412 95.026C219.373 94.794 219.064 94.62 218.484 94.504C217.942 94.388 217.362 94.3107 216.744 94.272C216.125 94.1947 215.7 94.156 215.468 94.156C215.352 94.0013 215.274 93.7307 215.236 93.344C215.236 92.9573 215.313 92.6867 215.468 92.532C216.628 92.5707 217.768 92.6287 218.89 92.706C220.011 92.7447 221.113 92.764 222.196 92.764ZM239.213 92.764C240.451 92.764 241.649 92.7447 242.809 92.706C243.969 92.6287 245.11 92.5707 246.231 92.532C246.309 92.6867 246.328 92.996 246.289 93.46C246.289 93.8853 246.231 94.1173 246.115 94.156C245.961 94.156 245.593 94.214 245.013 94.33C244.472 94.4073 243.95 94.5813 243.447 94.852C242.945 95.084 242.693 95.4707 242.693 96.012C242.693 96.6307 243.041 97.9067 243.737 99.84C244.047 100.691 244.453 101.831 244.955 103.262C245.497 104.654 246.077 106.201 246.695 107.902C247.314 109.603 247.933 111.305 248.551 113.006C249.209 114.707 249.789 116.273 250.291 117.704C250.833 119.135 251.258 120.314 251.567 121.242C251.915 122.131 252.109 122.615 252.147 122.692C252.225 122.537 252.476 121.957 252.901 120.952C253.327 119.908 253.849 118.593 254.467 117.008C255.125 115.423 255.84 113.683 256.613 111.788C257.387 109.855 258.16 107.902 258.933 105.93C259.745 103.958 260.499 102.102 261.195 100.362C261.466 99.7047 261.698 99.0087 261.891 98.274C262.085 97.5393 262.181 96.9207 262.181 96.418C262.181 95.7993 261.911 95.3353 261.369 95.026C260.867 94.7167 260.306 94.504 259.687 94.388C259.107 94.272 258.701 94.214 258.469 94.214C258.315 94.1367 258.237 93.8853 258.237 93.46C258.237 92.996 258.315 92.6867 258.469 92.532C259.513 92.5707 260.499 92.6287 261.427 92.706C262.355 92.7447 263.341 92.764 264.385 92.764C265.275 92.764 265.971 92.764 266.473 92.764C267.015 92.7253 267.537 92.6867 268.039 92.648C268.542 92.6093 269.161 92.5707 269.895 92.532C269.973 92.6867 269.992 92.996 269.953 93.46C269.915 93.924 269.857 94.156 269.779 94.156C269.547 94.156 269.006 94.2527 268.155 94.446C267.343 94.6393 266.686 95.026 266.183 95.606C265.835 95.9927 265.371 96.7853 264.791 97.984C264.25 99.144 263.767 100.265 263.341 101.348C262.297 103.939 261.331 106.317 260.441 108.482C259.591 110.647 258.74 112.735 257.889 114.746C257.077 116.757 256.227 118.845 255.337 121.01C254.448 123.175 253.443 125.573 252.321 128.202C252.012 128.937 251.664 129.439 251.277 129.71C250.929 129.981 250.562 130.116 250.175 130.116C250.059 130.116 249.963 130 249.885 129.768C249.808 129.497 249.731 129.304 249.653 129.188C248.377 125.824 247.179 122.692 246.057 119.792C244.975 116.853 243.853 113.876 242.693 110.86C241.572 107.844 240.296 104.519 238.865 100.884C238.44 99.7627 238.015 98.7573 237.589 97.868C237.203 96.9787 236.758 96.1667 236.255 95.432C236.062 95.1227 235.714 94.8713 235.211 94.678C234.709 94.4847 234.206 94.3493 233.703 94.272C233.239 94.1947 232.891 94.156 232.659 94.156C232.621 94.156 232.601 93.9047 232.601 93.402C232.601 92.8607 232.621 92.5707 232.659 92.532C233.974 92.5707 235.057 92.6287 235.907 92.706C236.797 92.7447 237.899 92.764 239.213 92.764ZM280.164 92.764C281.285 92.764 282.368 92.7447 283.412 92.706C284.495 92.6287 285.616 92.5707 286.776 92.532C286.931 92.6867 286.989 92.9573 286.95 93.344C286.95 93.7307 286.892 94.0013 286.776 94.156C286.544 94.156 286.119 94.1947 285.5 94.272C284.881 94.3107 284.301 94.388 283.76 94.504C283.219 94.62 282.909 94.794 282.832 95.026C282.716 95.4127 282.639 95.9153 282.6 96.534C282.6 97.1527 282.6 97.8293 282.6 98.564C282.6 98.68 282.6 98.796 282.6 98.912C282.6 99.028 282.6 99.144 282.6 99.26V123.446C282.6 123.562 282.6 123.678 282.6 123.794C282.6 123.91 282.6 124.026 282.6 124.142C282.6 124.877 282.6 125.553 282.6 126.172C282.639 126.752 282.716 127.235 282.832 127.622C282.909 127.815 283.219 127.989 283.76 128.144C284.301 128.299 284.881 128.415 285.5 128.492C286.119 128.531 286.544 128.55 286.776 128.55C286.892 128.705 286.95 128.975 286.95 129.362C286.989 129.749 286.931 130.019 286.776 130.174C285.616 130.097 284.495 130.039 283.412 130C282.368 129.923 281.285 129.884 280.164 129.884C279.081 129.884 277.979 129.923 276.858 130C275.737 130.039 274.596 130.097 273.436 130.174C273.281 130.019 273.204 129.749 273.204 129.362C273.243 128.975 273.32 128.705 273.436 128.55C273.668 128.55 274.093 128.531 274.712 128.492C275.331 128.415 275.911 128.299 276.452 128.144C277.032 127.989 277.341 127.815 277.38 127.622C277.535 127.158 277.612 126.559 277.612 125.824C277.651 125.089 277.67 124.297 277.67 123.446V99.26C277.67 98.4093 277.651 97.6167 277.612 96.882C277.612 96.1087 277.535 95.49 277.38 95.026C277.341 94.794 277.032 94.62 276.452 94.504C275.911 94.388 275.331 94.3107 274.712 94.272C274.093 94.1947 273.668 94.156 273.436 94.156C273.32 94.0013 273.243 93.7307 273.204 93.344C273.204 92.9573 273.281 92.6867 273.436 92.532C274.596 92.5707 275.737 92.6287 276.858 92.706C277.979 92.7447 279.081 92.764 280.164 92.764ZM312.332 92.242C314.188 92.242 316.121 92.3193 318.132 92.474C320.181 92.6287 322.25 92.938 324.338 93.402C324.338 93.402 324.396 93.808 324.512 94.62C324.667 95.3933 324.821 96.3213 324.976 97.404C325.131 98.448 325.266 99.4147 325.382 100.304C325.537 101.155 325.614 101.657 325.614 101.812C325.653 101.967 325.537 102.121 325.266 102.276C324.995 102.431 324.705 102.508 324.396 102.508C324.125 102.508 323.893 102.45 323.7 102.334C323.623 101.909 323.429 101.251 323.12 100.362C322.849 99.4727 322.327 98.5447 321.554 97.578C320.819 96.6113 319.737 95.7993 318.306 95.142C316.875 94.446 314.981 94.098 312.622 94.098C310.534 94.098 308.639 94.5813 306.938 95.548C305.237 96.476 303.767 97.752 302.53 99.376C301.331 100.961 300.403 102.74 299.746 104.712C299.127 106.645 298.818 108.598 298.818 110.57C298.818 112.774 299.108 114.939 299.688 117.066C300.307 119.193 301.215 121.126 302.414 122.866C303.651 124.567 305.179 125.94 306.996 126.984C308.852 127.989 311.017 128.492 313.492 128.492C315.232 128.492 316.701 128.221 317.9 127.68C319.137 127.139 320.162 126.501 320.974 125.766C322.095 124.761 322.907 123.639 323.41 122.402C323.913 121.165 324.261 120.082 324.454 119.154C325.111 119.077 325.711 119.231 326.252 119.618C326.252 119.889 326.175 120.43 326.02 121.242C325.904 122.054 325.749 122.943 325.556 123.91C325.363 124.838 325.15 125.669 324.918 126.404C324.686 127.139 324.473 127.603 324.28 127.796C322.733 128.647 320.974 129.285 319.002 129.71C317.03 130.135 314.729 130.348 312.1 130.348C309.316 130.348 306.764 129.865 304.444 128.898C302.124 127.893 300.113 126.539 298.412 124.838C296.749 123.098 295.454 121.126 294.526 118.922C293.637 116.679 293.192 114.301 293.192 111.788C293.192 109.12 293.656 106.626 294.584 104.306C295.551 101.947 296.885 99.8593 298.586 98.042C300.287 96.2247 302.298 94.8133 304.618 93.808C306.977 92.764 309.548 92.242 312.332 92.242ZM178.394 176.112C178.394 176.112 178.568 175.648 178.916 174.72C179.303 173.753 179.805 172.458 180.424 170.834C181.043 169.21 181.739 167.412 182.512 165.44C183.324 163.429 184.136 161.38 184.948 159.292C185.76 157.165 186.533 155.135 187.268 153.202C188.041 151.269 188.718 149.567 189.298 148.098C189.453 147.789 189.781 147.441 190.284 147.054C190.825 146.667 191.231 146.474 191.502 146.474C191.579 146.474 191.618 146.493 191.618 146.532C191.657 146.532 191.715 146.551 191.792 146.59L203.334 176.866C204.185 179.109 204.668 180.346 204.784 180.578C204.977 181.003 205.345 181.371 205.886 181.68C206.466 181.989 207.027 182.221 207.568 182.376C208.148 182.492 208.515 182.55 208.67 182.55C208.825 182.743 208.883 183.053 208.844 183.478C208.805 183.865 208.767 184.097 208.728 184.174C207.607 184.097 206.601 184.039 205.712 184C204.823 183.923 203.759 183.884 202.522 183.884C201.207 183.884 200.105 183.923 199.216 184C198.365 184.039 197.283 184.097 195.968 184.174C195.813 184.019 195.736 183.749 195.736 183.362C195.775 182.975 195.871 182.705 196.026 182.55C196.374 182.55 196.915 182.492 197.65 182.376C198.385 182.221 198.887 182.028 199.158 181.796C199.313 181.641 199.39 181.371 199.39 180.984C199.39 180.636 199.255 180.056 198.984 179.244C198.752 178.393 198.443 177.446 198.056 176.402C197.669 175.358 197.283 174.353 196.896 173.386C196.509 172.381 196.181 171.569 195.91 170.95C195.678 170.293 195.562 169.964 195.562 169.964C195.562 169.964 195.523 169.925 195.446 169.848C195.369 169.771 195.291 169.732 195.214 169.732C194.634 169.693 193.919 169.674 193.068 169.674C192.217 169.674 191.425 169.674 190.69 169.674C190.497 169.674 190.303 169.674 190.11 169.674C189.917 169.674 189.743 169.674 189.588 169.674C188.428 169.674 187.442 169.693 186.63 169.732C185.818 169.732 184.774 169.771 183.498 169.848C183.459 169.848 183.401 169.887 183.324 169.964C183.247 170.003 183.208 170.022 183.208 170.022C183.208 170.022 183.053 170.409 182.744 171.182C182.473 171.955 182.125 172.883 181.7 173.966C181.313 175.01 180.965 175.996 180.656 176.924C180.308 177.891 180.076 178.703 179.96 179.36C179.883 180.017 179.844 180.539 179.844 180.926C179.844 181.351 180.134 181.699 180.714 181.97C181.333 182.202 181.951 182.357 182.57 182.434C183.227 182.511 183.633 182.55 183.788 182.55C183.865 182.627 183.923 182.879 183.962 183.304C184.001 183.691 183.981 183.981 183.904 184.174C183.169 184.135 182.531 184.097 181.99 184.058C181.487 184.019 180.965 183.981 180.424 183.942C179.921 183.903 179.245 183.884 178.394 183.884C177.543 183.884 176.828 183.903 176.248 183.942C175.668 183.981 175.088 184.019 174.508 184.058C173.928 184.097 173.193 184.135 172.304 184.174C172.227 184.097 172.188 183.865 172.188 183.478C172.188 183.053 172.227 182.743 172.304 182.55C172.652 182.55 173.232 182.473 174.044 182.318C174.895 182.125 175.455 181.835 175.726 181.448C176.306 180.713 176.789 179.901 177.176 179.012C177.601 178.084 178.007 177.117 178.394 176.112ZM189.472 153.318L184.31 167.122C184.31 167.122 184.31 167.161 184.31 167.238C184.349 167.315 184.387 167.354 184.426 167.354C185.161 167.393 186.031 167.431 187.036 167.47C188.08 167.47 188.911 167.47 189.53 167.47C190.419 167.47 191.212 167.451 191.908 167.412C192.643 167.373 193.435 167.335 194.286 167.296C194.363 167.296 194.402 167.257 194.402 167.18C194.441 167.064 194.46 167.006 194.46 167.006L189.472 153.318ZM236.076 146.532C236.54 146.532 237.14 146.435 237.874 146.242C238.609 146.049 239.15 145.875 239.498 145.72C239.808 145.565 240.02 145.488 240.136 145.488C240.252 145.488 240.388 145.527 240.542 145.604C240.736 147.344 240.948 149.026 241.18 150.65C241.451 152.274 241.741 153.84 242.05 155.348C241.973 155.425 241.838 155.522 241.644 155.638C241.451 155.754 241.219 155.793 240.948 155.754C240.523 155.754 240.252 155.657 240.136 155.464C239.75 153.492 239.112 151.849 238.222 150.534C237.333 149.219 236.173 148.562 234.742 148.562H227.55V177.446C227.55 178.297 227.55 179.089 227.55 179.824C227.589 180.559 227.686 181.158 227.84 181.622C227.918 181.815 228.227 181.989 228.768 182.144C229.31 182.299 229.87 182.415 230.45 182.492C231.069 182.531 231.494 182.55 231.726 182.55C231.842 182.705 231.9 182.975 231.9 183.362C231.939 183.749 231.881 184.019 231.726 184.174C230.566 184.097 229.445 184.039 228.362 184C227.318 183.923 226.236 183.884 225.114 183.884C224.032 183.884 222.93 183.923 221.808 184C220.687 184.039 219.546 184.097 218.386 184.174C218.232 184.019 218.154 183.749 218.154 183.362C218.193 182.975 218.27 182.705 218.386 182.55C218.618 182.55 219.044 182.531 219.662 182.492C220.281 182.415 220.861 182.299 221.402 182.144C221.982 181.989 222.292 181.815 222.33 181.622C222.485 181.158 222.562 180.559 222.562 179.824C222.601 179.089 222.62 178.297 222.62 177.446V148.562H215.312C213.882 148.562 212.722 149.219 211.832 150.534C210.943 151.849 210.286 153.492 209.86 155.464C209.744 155.657 209.474 155.754 209.048 155.754C208.778 155.793 208.546 155.754 208.352 155.638C208.198 155.522 208.082 155.425 208.004 155.348C208.314 153.84 208.584 152.274 208.816 150.65C209.048 149.026 209.261 147.344 209.454 145.604C209.648 145.527 209.88 145.527 210.15 145.604C210.421 145.643 210.634 145.701 210.788 145.778C211.136 145.933 211.62 146.107 212.238 146.3C212.896 146.455 213.456 146.532 213.92 146.532H236.076ZM256.221 177.446C256.221 177.523 256.221 177.639 256.221 177.794C256.221 178.142 256.221 178.606 256.221 179.186C256.221 179.727 256.241 180.23 256.279 180.694C256.318 181.158 256.395 181.429 256.511 181.506C256.898 181.777 257.362 181.951 257.903 182.028C258.483 182.067 259.373 182.086 260.571 182.086H263.761C264.844 182.086 266.023 181.97 267.299 181.738C268.614 181.467 269.658 181.061 270.431 180.52C271.127 180.017 271.765 179.321 272.345 178.432C272.964 177.543 273.505 176.344 273.969 174.836C274.047 174.604 274.317 174.488 274.781 174.488C275.477 174.488 275.941 174.604 276.173 174.836C275.632 176.383 275.033 178.026 274.375 179.766C273.757 181.506 273.351 182.995 273.157 184.232C270.103 184.232 267.067 184.193 264.051 184.116C261.035 184.039 257.633 184 253.843 184C252.529 184 251.349 184.019 250.305 184.058C249.261 184.135 248.179 184.174 247.057 184.174C246.903 184.019 246.825 183.749 246.825 183.362C246.864 182.975 246.941 182.705 247.057 182.55C247.289 182.55 247.715 182.531 248.333 182.492C248.952 182.415 249.532 182.299 250.073 182.144C250.653 181.989 250.963 181.815 251.001 181.622C251.156 181.158 251.233 180.559 251.233 179.824C251.272 179.089 251.291 178.297 251.291 177.446V153.26C251.291 152.409 251.272 151.617 251.233 150.882C251.233 150.109 251.156 149.49 251.001 149.026C250.963 148.794 250.653 148.62 250.073 148.504C249.532 148.388 248.952 148.311 248.333 148.272C247.715 148.195 247.289 148.156 247.057 148.156C246.941 148.001 246.864 147.731 246.825 147.344C246.825 146.957 246.903 146.687 247.057 146.532C248.217 146.571 249.358 146.629 250.479 146.706C251.601 146.745 252.703 146.764 253.785 146.764C254.907 146.764 255.989 146.745 257.033 146.706C258.116 146.629 259.237 146.571 260.397 146.532C260.552 146.687 260.61 146.957 260.571 147.344C260.571 147.731 260.513 148.001 260.397 148.156C260.165 148.156 259.74 148.195 259.121 148.272C258.503 148.311 257.923 148.388 257.381 148.504C256.84 148.62 256.531 148.794 256.453 149.026C256.337 149.413 256.26 149.915 256.221 150.534C256.221 151.153 256.221 151.829 256.221 152.564C256.221 152.68 256.221 152.796 256.221 152.912C256.221 153.028 256.221 153.144 256.221 153.26V177.446ZM283.528 176.112C283.528 176.112 283.702 175.648 284.05 174.72C284.437 173.753 284.939 172.458 285.558 170.834C286.177 169.21 286.873 167.412 287.646 165.44C288.458 163.429 289.27 161.38 290.082 159.292C290.894 157.165 291.667 155.135 292.402 153.202C293.175 151.269 293.852 149.567 294.432 148.098C294.587 147.789 294.915 147.441 295.418 147.054C295.959 146.667 296.365 146.474 296.636 146.474C296.713 146.474 296.752 146.493 296.752 146.532C296.791 146.532 296.849 146.551 296.926 146.59L308.468 176.866C309.319 179.109 309.802 180.346 309.918 180.578C310.111 181.003 310.479 181.371 311.02 181.68C311.6 181.989 312.161 182.221 312.702 182.376C313.282 182.492 313.649 182.55 313.804 182.55C313.959 182.743 314.017 183.053 313.978 183.478C313.939 183.865 313.901 184.097 313.862 184.174C312.741 184.097 311.735 184.039 310.846 184C309.957 183.923 308.893 183.884 307.656 183.884C306.341 183.884 305.239 183.923 304.35 184C303.499 184.039 302.417 184.097 301.102 184.174C300.947 184.019 300.87 183.749 300.87 183.362C300.909 182.975 301.005 182.705 301.16 182.55C301.508 182.55 302.049 182.492 302.784 182.376C303.519 182.221 304.021 182.028 304.292 181.796C304.447 181.641 304.524 181.371 304.524 180.984C304.524 180.636 304.389 180.056 304.118 179.244C303.886 178.393 303.577 177.446 303.19 176.402C302.803 175.358 302.417 174.353 302.03 173.386C301.643 172.381 301.315 171.569 301.044 170.95C300.812 170.293 300.696 169.964 300.696 169.964C300.696 169.964 300.657 169.925 300.58 169.848C300.503 169.771 300.425 169.732 300.348 169.732C299.768 169.693 299.053 169.674 298.202 169.674C297.351 169.674 296.559 169.674 295.824 169.674C295.631 169.674 295.437 169.674 295.244 169.674C295.051 169.674 294.877 169.674 294.722 169.674C293.562 169.674 292.576 169.693 291.764 169.732C290.952 169.732 289.908 169.771 288.632 169.848C288.593 169.848 288.535 169.887 288.458 169.964C288.381 170.003 288.342 170.022 288.342 170.022C288.342 170.022 288.187 170.409 287.878 171.182C287.607 171.955 287.259 172.883 286.834 173.966C286.447 175.01 286.099 175.996 285.79 176.924C285.442 177.891 285.21 178.703 285.094 179.36C285.017 180.017 284.978 180.539 284.978 180.926C284.978 181.351 285.268 181.699 285.848 181.97C286.467 182.202 287.085 182.357 287.704 182.434C288.361 182.511 288.767 182.55 288.922 182.55C288.999 182.627 289.057 182.879 289.096 183.304C289.135 183.691 289.115 183.981 289.038 184.174C288.303 184.135 287.665 184.097 287.124 184.058C286.621 184.019 286.099 183.981 285.558 183.942C285.055 183.903 284.379 183.884 283.528 183.884C282.677 183.884 281.962 183.903 281.382 183.942C280.802 183.981 280.222 184.019 279.642 184.058C279.062 184.097 278.327 184.135 277.438 184.174C277.361 184.097 277.322 183.865 277.322 183.478C277.322 183.053 277.361 182.743 277.438 182.55C277.786 182.55 278.366 182.473 279.178 182.318C280.029 182.125 280.589 181.835 280.86 181.448C281.44 180.713 281.923 179.901 282.31 179.012C282.735 178.084 283.141 177.117 283.528 176.112ZM294.606 153.318L289.444 167.122C289.444 167.122 289.444 167.161 289.444 167.238C289.483 167.315 289.521 167.354 289.56 167.354C290.295 167.393 291.165 167.431 292.17 167.47C293.214 167.47 294.045 167.47 294.664 167.47C295.553 167.47 296.346 167.451 297.042 167.412C297.777 167.373 298.569 167.335 299.42 167.296C299.497 167.296 299.536 167.257 299.536 167.18C299.575 167.064 299.594 167.006 299.594 167.006L294.606 153.318ZM330.178 146.3C331.376 146.3 332.362 146.377 333.136 146.532C333.948 146.648 334.76 146.822 335.572 147.054C336.422 147.286 337.466 147.557 338.704 147.866C338.936 149.335 339.11 150.863 339.226 152.448C339.38 153.995 339.477 155.155 339.516 155.928C339.554 156.121 339.419 156.276 339.11 156.392C338.8 156.469 338.549 156.508 338.356 156.508C338.085 156.508 337.872 156.431 337.718 156.276C337.64 155.58 337.408 154.768 337.022 153.84C336.635 152.912 336.094 152.023 335.398 151.172C334.74 150.321 333.928 149.625 332.962 149.084C332.034 148.504 330.97 148.214 329.772 148.214C328.225 148.214 327.007 148.543 326.118 149.2C325.228 149.857 324.59 150.669 324.204 151.636C323.817 152.603 323.624 153.55 323.624 154.478C323.624 155.986 324.01 157.243 324.784 158.248C325.596 159.253 326.601 160.143 327.8 160.916C329.037 161.689 330.274 162.482 331.512 163.294C332.44 163.874 333.464 164.512 334.586 165.208C335.707 165.904 336.79 166.677 337.834 167.528C338.878 168.379 339.728 169.365 340.386 170.486C341.043 171.569 341.372 172.806 341.372 174.198C341.372 176.247 340.792 178.065 339.632 179.65C338.51 181.197 337.041 182.415 335.224 183.304C333.445 184.155 331.55 184.58 329.54 184.58C327.645 184.58 325.808 184.367 324.03 183.942C322.29 183.517 320.724 183.169 319.332 182.898C319.1 181.777 318.887 180.578 318.694 179.302C318.539 178.026 318.404 176.905 318.288 175.938C318.21 174.971 318.172 174.372 318.172 174.14C318.365 173.947 318.578 173.792 318.81 173.676C319.08 173.521 319.351 173.444 319.622 173.444C319.97 173.444 320.182 173.618 320.26 173.966C320.376 174.507 320.608 175.261 320.956 176.228C321.342 177.156 321.884 178.123 322.58 179.128C323.314 180.133 324.242 180.984 325.364 181.68C326.524 182.337 327.954 182.666 329.656 182.666C331.473 182.666 333.058 182.067 334.412 180.868C335.765 179.631 336.442 177.91 336.442 175.706C336.442 174.121 336.074 172.883 335.34 171.994C334.644 171.105 333.716 170.331 332.556 169.674C331.434 169.017 330.216 168.321 328.902 167.586C327.471 166.735 325.982 165.807 324.436 164.802C322.928 163.758 321.652 162.54 320.608 161.148C319.564 159.756 319.042 158.113 319.042 156.218C319.042 154.207 319.564 152.467 320.608 150.998C321.69 149.49 323.082 148.33 324.784 147.518C326.485 146.706 328.283 146.3 330.178 146.3Z" fill="#343B4D"/>
<rect x="37" y="257" width="25" height="25" fill="#FCF8F5"/>
</svg>
